<?xml version="1.0" encoding="UTF-8"?>
<svg width="600" height="200" viewBox="0 0 600 200" version="1.1" xmlns="http://www.w3.org/2000/svg">
    <!-- Sky gradient -->
    <defs>
        <linearGradient id="skyGradient" x1="0%" y1="0%" x2="0%" y2="100%">
            <stop offset="0%" style="stop-color:#A4C2E5;stop-opacity:0.7" />
            <stop offset="100%" style="stop-color:#D6E5F5;stop-opacity:0.7" />
        </linearGradient>
        
        <!-- Glass patterns -->
        <pattern id="windowPattern" x="0" y="0" width="4" height="4" patternUnits="userSpaceOnUse">
            <rect width="3" height="3" fill="#A4C2E5" fill-opacity="0.2"/>
        </pattern>
        
        <pattern id="windowPatternDark" x="0" y="0" width="6" height="8" patternUnits="userSpaceOnUse">
            <rect width="5" height="6" fill="#A4C2E5" fill-opacity="0.15"/>
        </pattern>
    </defs>
    
    <!-- Background -->
    <rect x="0" y="0" width="600" height="200" fill="url(#skyGradient)"/>
    
    <!-- El Ávila Mountain -->
    <path d="M0,70 L50,50 L100,65 L150,45 L200,55 L250,40 L300,50 L350,35 L400,45 L450,55 L500,40 L550,50 L600,60 L600,200 L0,200 Z" 
          fill="#728C69" opacity="0.6"/>
    <path d="M0,75 L50,55 L100,70 L150,50 L200,60 L250,45 L300,55 L350,40 L400,50 L450,60 L500,45 L550,55 L600,65 L600,195 L0,195 Z" 
          fill="#8BA784" opacity="0.5"/>
    
    <!-- Buildings Group -->
    <g id="buildings" opacity="0.8">
        <!-- Nestlé Building with red cup -->
        <g transform="translate(350,80)">
            <rect x="0" y="0" width="40" height="120" fill="#404040" opacity="0.6"/>
            <rect x="0" y="0" width="40" height="120" fill="url(#windowPattern)"/>
            <!-- Architectural details -->
            <rect x="18" y="0" width="4" height="120" fill="#505050" opacity="0.4"/>
            <rect x="0" y="30" width="40" height="2" fill="#505050" opacity="0.4"/>
            <rect x="0" y="60" width="40" height="2" fill="#505050" opacity="0.4"/>
            <rect x="0" y="90" width="40" height="2" fill="#505050" opacity="0.4"/>
            <!-- Red Cup with reduced opacity -->
            <g transform="translate(5,-20)">
                <path d="M0,0 L30,0 L25,10 L5,10 Z" fill="#FF0000" opacity="0.7"/>
                <rect x="5" y="0" width="20" height="15" fill="#FF0000" opacity="0.7"/>
                <!-- Cup details -->
                <path d="M7,2 L23,2" stroke="#FFFFFF" stroke-width="1" opacity="0.3"/>
                <path d="M6,7 L24,7" stroke="#FFFFFF" stroke-width="1" opacity="0.3"/>
            </g>
        </g>

        <!-- BBVA Provincial Tower -->
        <g transform="translate(250,60)">
            <rect x="0" y="0" width="45" height="140" fill="#2B2B2B" opacity="0.6"/>
            <rect x="0" y="0" width="45" height="140" fill="url(#windowPatternDark)"/>
            <!-- Architectural details -->
            <rect x="20" y="0" width="5" height="140" fill="#3A3A3A" opacity="0.4"/>
            <rect x="0" y="35" width="45" height="3" fill="#3A3A3A" opacity="0.4"/>
            <rect x="0" y="70" width="45" height="3" fill="#3A3A3A" opacity="0.4"/>
            <rect x="0" y="105" width="45" height="3" fill="#3A3A3A" opacity="0.4"/>
            <!-- Logo space -->
            <rect x="5" y="10" width="35" height="10" fill="#FFFFFF" opacity="0.4"/>
        </g>

        <!-- Mercantil Bank Building -->
        <g transform="translate(150,70)">
            <rect x="0" y="0" width="50" height="130" fill="#333333" opacity="0.6"/>
            <rect x="0" y="0" width="50" height="130" fill="url(#windowPattern)"/>
            <!-- Enhanced architectural details -->
            <rect x="20" y="0" width="10" height="130" fill="#404040" opacity="0.4"/>
            <rect x="0" y="40" width="50" height="2" fill="#404040" opacity="0.4"/>
            <rect x="0" y="80" width="50" height="2" fill="#404040" opacity="0.4"/>
            <!-- Vertical details -->
            <rect x="10" y="0" width="2" height="130" fill="#404040" opacity="0.3"/>
            <rect x="38" y="0" width="2" height="130" fill="#404040" opacity="0.3"/>
        </g>

        <!-- Torre Europa -->
        <g transform="translate(420,90)">
            <rect x="0" y="0" width="35" height="110" fill="#4A4A4A" opacity="0.6"/>
            <rect x="0" y="0" width="35" height="110" fill="url(#windowPatternDark)"/>
            <!-- Additional details -->
            <rect x="15" y="0" width="5" height="110" fill="#555555" opacity="0.3"/>
            <rect x="0" y="25" width="35" height="2" fill="#555555" opacity="0.3"/>
            <rect x="0" y="50" width="35" height="2" fill="#555555" opacity="0.3"/>
            <rect x="0" y="75" width="35" height="2" fill="#555555" opacity="0.3"/>
        </g>

        <!-- Smaller buildings with added details -->
        <g opacity="0.7">
            <!-- Building 1 -->
            <rect x="100" y="110" width="30" height="90" fill="#4D4D4D" opacity="0.5"/>
            <rect x="100" y="110" width="30" height="90" fill="url(#windowPattern)"/>
            <rect x="100" y="130" width="30" height="2" fill="#555555" opacity="0.3"/>
            <rect x="100" y="150" width="30" height="2" fill="#555555" opacity="0.3"/>
            
            <!-- Building 2 -->
            <rect x="300" y="100" width="25" height="100" fill="#454545" opacity="0.5"/>
            <rect x="300" y="100" width="25" height="100" fill="url(#windowPattern)"/>
            <rect x="310" y="100" width="3" height="100" fill="#555555" opacity="0.3"/>
            
            <!-- Building 3 -->
            <rect x="480" y="120" width="40" height="80" fill="#3D3D3D" opacity="0.5"/>
            <rect x="480" y="120" width="40" height="80" fill="url(#windowPattern)"/>
            <rect x="480" y="140" width="40" height="2" fill="#555555" opacity="0.3"/>
            <rect x="480" y="160" width="40" height="2" fill="#555555" opacity="0.3"/>
        </g>

        <!-- Foreground buildings with subtle details -->
        <g fill="#2A2A2A" opacity="0.5">
            <rect x="50" y="140" width="20" height="60"/>
            <rect x="200" y="130" width="25" height="70"/>
            <rect x="380" y="150" width="15" height="50"/>
            <rect x="520" y="160" width="30" height="40"/>
        </g>
    </g>

    <!-- Light reflections on buildings (more subtle) -->
    <g opacity="0.08" fill="white">
        <rect x="355" y="80" width="10" height="120"/>
        <rect x="255" y="60" width="15" height="140"/>
        <rect x="155" y="70" width="20" height="130"/>
    </g>

    <!-- Mountain details -->
    <g stroke="#728C69" stroke-width="1" opacity="0.2">
        <path d="M100,65 L120,60 M140,55 L160,50 M180,55 L200,50"/>
        <path d="M300,50 L320,45 M340,40 L360,35 M380,40 L400,35"/>
    </g>
</svg> 