<?xml version="1.0" encoding="UTF-8"?>
<svg width="50" height="50" viewBox="0 0 50 50" version="1.1" xmlns="http://www.w3.org/2000/svg">
    <g>
        <!-- Body -->
        <rect x="15" y="20" width="20" height="15" fill="#FF6B00"/> <!-- Main orange body -->
        <rect x="15" y="20" width="20" height="4" fill="#FF8533"/> <!-- Lighter top -->
        <rect x="15" y="31" width="20" height="4" fill="#CC5500"/> <!-- Darker bottom -->
        
        <!-- Head and neck -->
        <rect x="30" y="15" width="12" height="12" fill="#1A1A1A"/> <!-- Black head -->
        <rect x="25" y="18" width="7" height="7" fill="#1A1A1A"/> <!-- Neck -->
        
        <!-- Beak -->
        <path d="M42,18 L48,20 L42,22 Z" fill="#1A1A1A"/> <!-- Sharp black beak -->
        
        <!-- Eye -->
        <circle cx="38" cy="19" r="1.5" fill="white"/>
        <circle cx="38" cy="19" r="0.8" fill="#1A1A1A"/>
        <circle cx="37.5" cy="18.5" r="0.4" fill="white"/> <!-- Eye highlight -->
        
        <!-- Wings -->
        <path d="M15,20 L25,20 L20,15 L10,15 Z" fill="#1A1A1A"/> <!-- Left wing -->
        <rect x="10" y="15" width="15" height="2" fill="#333333"/> <!-- Wing highlight -->
        
        <!-- Tail -->
        <path d="M5,25 L15,20 L15,35 L5,30 Z" fill="#1A1A1A"/> <!-- Black tail -->
        <rect x="5" y="26" width="10" height="2" fill="#333333"/> <!-- Tail highlight -->
        
        <!-- Legs -->
        <rect x="20" y="35" width="2" height="8" fill="#1A1A1A"/> <!-- Left leg -->
        <rect x="28" y="35" width="2" height="8" fill="#1A1A1A"/> <!-- Right leg -->
        <rect x="19" y="43" width="4" height="2" fill="#1A1A1A"/> <!-- Left foot -->
        <rect x="27" y="43" width="4" height="2" fill="#1A1A1A"/> <!-- Right foot -->
        
        <!-- Breast detail -->
        <path d="M15,25 Q25,28 35,25 Q25,32 15,25" fill="#FF8533"/> <!-- Lighter orange breast -->
    </g>
</svg> 